<svg xmlns="http://www.w3.org/2000/svg" width="32" height="32" viewBox="0 0 32 32">
  <defs>
    <linearGradient id="faviconGradient" x1="0%" y1="0%" x2="100%" y2="100%">
      <stop offset="0%" stop-color="#60a5fa" />
      <stop offset="50%" stop-color="#a855f7" />
      <stop offset="100%" stop-color="#ec4899" />
    </linearGradient>
  </defs>

  <circle cx="16" cy="16" r="15" fill="url(#faviconGradient)" opacity="0.1"/>
  <circle cx="16" cy="16" r="12" fill="none" stroke="url(#faviconGradient)" stroke-width="2" opacity="0.6"/>

  <!-- Music note symbol -->
  <path d="M12 8c0-.553.448-1 1-1h6c.552 0 1 .447 1 1v8c0 1.105-.895 2-2 2s-2-.895-2-2c0-.553.448-1 1-1s1 .447 1 1h1V9h-5v7c0 1.105-.895 2-2 2s-2-.895-2-2c0-.553.448-1 1-1s1 .447 1 1h1V8z" fill="url(#faviconGradient)"/>

  <!-- Visualization bars -->
  <rect x="8" y="18" width="1" height="6" fill="url(#faviconGradient)" opacity="0.8"/>
  <rect x="10" y="16" width="1" height="8" fill="url(#faviconGradient)" opacity="0.8"/>
  <rect x="22" y="16" width="1" height="8" fill="url(#faviconGradient)" opacity="0.8"/>
  <rect x="24" y="18" width="1" height="6" fill="url(#faviconGradient)" opacity="0.8"/>
</svg>